<svg width="89" height="89" viewBox="0 0 89 89" fill="none" xmlns="http://www.w3.org/2000/svg">
<g clip-path="url(#clip0_831_31407)">
<path d="M16.91 0H72.09C81.435 0 89 7.565 89 16.91V72.09C89 81.435 81.435 89 72.09 89H16.91C7.565 89 0 81.435 0 72.09V16.91C0 7.565 7.565 0 16.91 0Z" fill="#7D5260"/>
<path d="M44.4979 60.7869C35.5089 60.7869 28.2109 53.4889 28.2109 44.4999C28.2109 35.5109 35.5089 28.2129 44.4979 28.2129C53.4869 28.2129 60.7849 35.5109 60.7849 44.4999C60.7849 53.4889 53.4869 60.7869 44.4979 60.7869ZM44.4979 30.8829C37.0219 30.8829 30.8809 36.9349 30.8809 44.4999C30.8809 51.9759 36.9329 58.1169 44.4979 58.1169C51.9739 58.1169 58.1149 52.0649 58.1149 44.4999C58.1149 37.0239 51.9739 30.8829 44.4979 30.8829Z" fill="white"/>
<path d="M44.4991 30.8829C43.7871 30.8829 43.1641 30.2599 43.1641 29.5479V16.4649C43.1641 15.7529 43.7871 15.1299 44.4991 15.1299C45.2111 15.1299 45.8341 15.7529 45.8341 16.4649V29.5479C45.8341 30.3489 45.2111 30.8829 44.4991 30.8829Z" fill="white"/>
<path d="M44.4991 73.8702C43.7871 73.8702 43.1641 73.2472 43.1641 72.5352V59.4522C43.1641 58.7402 43.7871 58.1172 44.4991 58.1172C45.2111 58.1172 45.8341 58.7402 45.8341 59.4522V72.5352C45.8341 73.2472 45.2111 73.8702 44.4991 73.8702Z" fill="white"/>
<path d="M72.5352 45.835H59.4522C58.7402 45.835 58.1172 45.212 58.1172 44.5C58.1172 43.788 58.7402 43.165 59.4522 43.165H72.5352C73.2472 43.165 73.8702 43.788 73.8702 44.5C73.8702 45.212 73.2472 45.835 72.5352 45.835Z" fill="white"/>
<path d="M29.5469 45.835H16.4639C15.7519 45.835 15.1289 45.212 15.1289 44.5C15.1289 43.788 15.7519 43.165 16.4639 43.165H29.5469C30.2589 43.165 30.8819 43.788 30.8819 44.5C30.8819 45.212 30.3479 45.835 29.5469 45.835Z" fill="white"/>
<path d="M64.3464 65.6814C63.9904 65.6814 63.6344 65.5924 63.3674 65.3254L54.1114 55.9804C53.5774 55.4464 53.5774 54.6454 54.1114 54.1114C54.6454 53.5774 55.4464 53.5774 55.9804 54.1114L65.2364 63.3674C65.7704 63.9014 65.7704 64.7024 65.2364 65.2364C64.9694 65.5034 64.7024 65.6814 64.3464 65.6814Z" fill="white"/>
<path d="M33.9988 35.3328C33.6428 35.3328 33.2868 35.2438 33.0198 34.9768L23.7638 25.6318C23.2298 25.0978 23.2298 24.2968 23.7638 23.7628C24.2978 23.2288 25.0988 23.2288 25.6328 23.7628L34.8888 33.0188C35.4228 33.5528 35.4228 34.3538 34.8888 34.8878C34.6218 35.1548 34.2658 35.3328 33.9988 35.3328Z" fill="white"/>
<path d="M24.6529 65.6823C24.2969 65.6823 23.9409 65.5933 23.6739 65.3263C23.1399 64.7923 23.1399 63.9913 23.6739 63.4573L32.9299 54.2013C33.4639 53.6673 34.2649 53.6673 34.7989 54.2013C35.3329 54.7353 35.3329 55.5363 34.7989 56.0703L25.6319 65.2373C25.3649 65.5043 25.0089 65.6823 24.6529 65.6823Z" fill="white"/>
<path d="M55.0006 35.3327C54.6446 35.3327 54.2886 35.2437 54.0216 34.9767C53.4876 34.4427 53.4876 33.6417 54.0216 33.1077L63.2776 23.8517C63.8116 23.3177 64.6126 23.3177 65.1466 23.8517C65.6806 24.3857 65.6806 25.1867 65.1466 25.7207L55.9796 34.8877C55.7126 35.1547 55.3566 35.3327 55.0006 35.3327Z" fill="white"/>
</g>
<defs>
<clipPath id="clip0_831_31407">
<rect width="89" height="89" fill="white"/>
</clipPath>
</defs>
</svg>
