<svg width="89" height="89" viewBox="0 0 89 89" fill="none" xmlns="http://www.w3.org/2000/svg">
<g clip-path="url(#clip0_831_31429)">
<path d="M16.91 0H72.09C81.435 0 89 7.565 89 16.91V72.09C89 81.435 81.435 89 72.09 89H16.91C7.565 89 0 81.435 0 72.09V16.91C0 7.565 7.565 0 16.91 0Z" fill="#625A71"/>
<path d="M51.0854 61.5878C45.1224 61.5878 40.3164 56.7818 40.3164 50.8188C40.3164 44.8558 45.1224 40.0498 51.0854 40.0498C57.0484 40.0498 61.8544 44.8558 61.8544 50.8188C61.8544 56.7818 56.9594 61.5878 51.0854 61.5878ZM51.0854 42.8088C46.6354 42.8088 42.9864 46.4578 42.9864 50.9078C42.9864 55.3578 46.6354 59.0068 51.0854 59.0068C55.5354 59.0068 59.1844 55.3578 59.1844 50.9078C59.1844 46.4578 55.5354 42.8088 51.0854 42.8088Z" fill="white"/>
<path d="M60.3428 64.6141C59.8978 64.6141 59.5418 64.4361 59.2748 64.0801L55.6258 59.2741C55.1808 58.6511 55.2698 57.8501 55.8928 57.4051C56.5158 56.9601 57.3168 57.0491 57.7618 57.6721L61.4108 62.4781C61.8558 63.1011 61.7668 63.9021 61.1438 64.3471C60.8768 64.5251 60.6098 64.6141 60.3428 64.6141Z" fill="white"/>
<path d="M66.3056 75.6496C64.9706 75.6496 63.6356 75.0266 62.8346 73.8696L56.7826 65.8596C56.6046 65.5926 56.5156 65.2366 56.5156 64.8806C56.5156 64.5246 56.7826 64.2576 57.0496 63.9906L61.9446 60.3416C62.5676 59.8966 63.3686 59.9856 63.8136 60.6086L69.8656 68.6186C71.2896 70.5766 70.9336 73.3356 68.9756 74.7596C68.1746 75.3826 67.2846 75.6496 66.3056 75.6496ZM59.7196 65.3256L64.9706 72.2676C65.5046 72.9796 66.5726 73.1576 67.3736 72.6236C68.0856 72.0896 68.2636 71.0216 67.7296 70.2206L62.4786 63.2786L59.7196 65.3256Z" fill="white"/>
<path d="M27.1461 56.426C26.4341 56.426 25.8111 55.803 25.8111 55.091V43.076L18.8691 33.375C18.4241 32.752 18.2461 32.04 18.2461 31.239L19.2251 19.313C19.4031 17.088 21.4501 15.397 23.6751 15.575C24.7431 15.664 25.7221 16.198 26.4341 16.999C27.1461 17.8 27.5021 18.868 27.4131 20.025L26.6121 30.082L29.8161 34.532H49.3071L52.5111 30.082L51.6211 20.025C51.4431 17.8 53.1341 15.842 55.3591 15.575C56.4271 15.486 57.4951 15.842 58.3851 16.554C59.1861 17.266 59.7201 18.245 59.8091 19.313L60.7881 31.328C60.8771 32.04 60.6101 32.841 60.1651 33.464L53.6681 42.453C53.2231 43.076 52.4221 43.165 51.7991 42.72C51.1761 42.275 51.0871 41.474 51.5321 40.851L58.0291 31.862C58.1181 31.773 58.1181 31.595 58.1181 31.506L57.1391 19.58C57.1391 19.224 56.9611 18.868 56.6051 18.601C56.3381 18.334 55.9821 18.245 55.5371 18.245C54.7361 18.334 54.2021 19.046 54.2021 19.758L55.0031 30.349C55.0031 30.705 54.9141 30.972 54.7361 31.239L50.9091 36.668C50.6421 37.024 50.2861 37.202 49.8411 37.202H29.1041C28.6591 37.202 28.3031 37.024 28.0361 36.668L24.2091 31.239C24.0311 30.972 23.9421 30.705 23.9421 30.349L24.7431 19.758C24.7431 19.402 24.6541 18.957 24.3871 18.69C24.1201 18.423 23.7641 18.245 23.4081 18.156C22.6071 18.067 21.8951 18.69 21.8951 19.491L21.0051 31.417C21.0051 31.506 21.0051 31.684 21.0941 31.773L28.3031 41.83C28.4811 42.097 28.5701 42.364 28.5701 42.631V55.091C28.4811 55.803 27.9471 56.426 27.1461 56.426Z" fill="white"/>
<path d="M39.5186 31.6836C34.4456 31.6836 30.3516 27.5896 30.3516 22.5166C30.3516 17.4436 34.4456 13.3496 39.5186 13.3496C44.5916 13.3496 48.6856 17.4436 48.6856 22.5166C48.6856 27.5896 44.5916 31.6836 39.5186 31.6836ZM39.5186 16.0196C35.9586 16.0196 33.0216 18.9566 33.0216 22.5166C33.0216 26.0766 35.9586 29.0136 39.5186 29.0136C43.0786 29.0136 46.0156 26.0766 46.0156 22.5166C46.0156 18.9566 43.0786 16.0196 39.5186 16.0196Z" fill="white"/>
</g>
<defs>
<clipPath id="clip0_831_31429">
<rect width="89" height="89" fill="white"/>
</clipPath>
</defs>
</svg>
