<svg width="89" height="89" viewBox="0 0 89 89" fill="none" xmlns="http://www.w3.org/2000/svg">
<g clip-path="url(#clip0_831_31413)">
<path d="M16.91 0H72.09C81.435 0 89 7.565 89 16.91V72.09C89 81.435 81.435 89 72.09 89H16.91C7.565 89 0 81.435 0 72.09V16.91C0 7.565 7.565 0 16.91 0Z" fill="#625A71"/>
<path d="M21.2701 77.7859C20.5581 77.7859 19.9351 77.2519 19.9351 76.5399C19.8461 73.7809 19.9351 71.3779 22.3381 69.5979C23.6731 68.6189 26.3431 68.6189 29.6361 68.7079C33.9081 68.7969 39.2481 68.7969 41.0281 66.3939C41.9181 65.2369 41.9181 63.3679 41.0281 60.8759C39.8711 57.4939 40.3161 56.5149 42.2741 54.8239C42.5411 54.5569 42.8971 54.3789 43.1641 54.0229C43.3421 53.8449 43.4311 53.7559 43.4311 53.6669C43.4311 53.5779 43.3421 53.3999 42.9861 53.0439C42.1851 52.2429 41.0281 51.0859 41.1171 49.7509C41.2061 48.4159 42.1851 47.7039 42.8971 47.1699C43.2531 46.9029 43.7871 46.5469 43.7871 46.3689C43.7871 46.2799 43.6981 45.9239 43.3421 45.3899C43.2531 45.3009 43.0751 45.1229 42.9861 44.9449C42.0071 43.7879 40.8501 42.3639 41.2061 40.8509C41.3841 40.1389 41.9181 39.6049 42.6301 39.2489C43.0751 39.0709 43.6981 38.8929 44.3211 38.7149C45.6561 38.3589 47.8811 37.8249 47.8811 36.8459C47.8811 35.1549 43.9651 29.9039 41.3841 26.4329C39.6931 24.1189 38.0911 21.9829 37.2011 20.4699C36.6671 19.5799 36.7561 18.3339 36.8451 16.5539C36.8451 16.0199 36.9341 15.3969 36.9341 15.1299C36.8451 13.7949 36.6671 12.4599 36.4001 11.2139C36.2221 10.6799 36.6671 9.96794 37.3791 9.78994C38.0911 9.61194 38.8031 10.0569 38.9811 10.8579C39.2481 12.1929 39.4261 13.6169 39.6041 15.0409C39.6041 15.4859 39.6041 16.1089 39.5151 16.8209C39.4261 17.5329 39.3371 18.8679 39.5151 19.3129C40.3161 20.6479 41.8291 22.6949 43.5201 24.9199C47.7921 30.6159 50.5511 34.6209 50.5511 36.9349C50.5511 39.9609 47.0801 40.8509 44.9441 41.3849C44.5881 41.4739 44.2321 41.5629 43.8761 41.6519C44.1431 42.0969 44.7661 42.8979 45.0331 43.2539C45.2111 43.4319 45.3001 43.6099 45.4781 43.7879C46.2791 44.8559 46.6351 45.8349 46.4571 46.7249C46.2791 48.0599 45.3001 48.7719 44.4991 49.3059C44.2321 49.4839 43.7871 49.8399 43.6981 49.9289C43.6981 49.9289 43.8761 50.2849 44.6771 51.0859C45.5671 51.8869 46.0121 52.7769 46.0121 53.6669C46.0121 54.5569 45.6561 55.2689 44.9441 55.9809C44.5881 56.3369 44.2321 56.6039 43.8761 56.8709C42.8971 57.8499 42.8971 57.8499 43.6091 59.9859C44.7661 63.3679 44.5881 66.0379 43.1641 67.9069C40.5831 71.4669 34.5311 71.3779 29.6361 71.2889C27.4111 71.2889 24.6521 71.1999 23.9401 71.7339C22.6941 72.6239 22.5161 73.8699 22.6051 76.3619C22.6051 77.0739 22.0711 77.6969 21.2701 77.7859Z" fill="white"/>
<path d="M53.5787 57.1377C53.2227 57.1377 52.8667 57.0487 52.5997 56.7817C52.0657 56.2477 52.0657 55.4467 52.5997 54.9127C54.0237 53.4887 54.8247 51.5307 54.8247 49.4837C54.8247 47.4367 54.0237 45.4787 52.5997 44.0547C52.0657 43.5207 52.0657 42.7197 52.5997 42.1857C53.1337 41.6517 53.9347 41.6517 54.4687 42.1857C56.4267 44.1437 57.4947 46.7247 57.4947 49.5727C57.4947 52.3317 56.4267 54.9127 54.4687 56.8707C54.2017 56.9597 53.8457 57.1377 53.5787 57.1377Z" fill="white"/>
<path d="M59.6295 60.3416C59.2735 60.3416 58.9175 60.2526 58.6505 59.9856C58.1165 59.4516 58.1165 58.6506 58.6505 58.1166C60.9645 55.8026 62.2105 52.6876 62.2105 49.4836C62.2105 46.1906 60.9645 43.1646 58.6505 40.8506C58.1165 40.3166 58.1165 39.5156 58.6505 38.9816C59.1845 38.4476 59.9855 38.4476 60.5195 38.9816C63.4565 41.6516 64.9695 45.3896 64.9695 49.3946C64.9695 53.3996 63.4565 57.1376 60.6085 59.9856C60.3415 60.1636 59.9855 60.3416 59.6295 60.3416Z" fill="white"/>
<path d="M65.7701 63.5455C65.4141 63.5455 65.0581 63.4565 64.7911 63.1895C64.2571 62.6555 64.2571 61.8545 64.7911 61.3205C67.9951 58.1165 69.6861 53.9335 69.6861 49.4835C69.6861 45.0335 67.9061 40.7615 64.7911 37.6465C64.2571 37.1125 64.2571 36.3115 64.7911 35.7775C65.3251 35.2435 66.1261 35.2435 66.6601 35.7775C70.3091 39.4265 72.3561 44.3215 72.3561 49.5725C72.3561 54.7345 70.3091 59.6295 66.6601 63.3675C66.4821 63.3675 66.1261 63.5455 65.7701 63.5455Z" fill="white"/>
</g>
<defs>
<clipPath id="clip0_831_31413">
<rect width="89" height="89" fill="white"/>
</clipPath>
</defs>
</svg>
