<svg width="89" height="89" viewBox="0 0 89 89" fill="none" xmlns="http://www.w3.org/2000/svg">
<g clip-path="url(#clip0_831_31423)">
<path d="M16.91 0H72.09C81.435 0 89 7.565 89 16.91V72.09C89 81.435 81.435 89 72.09 89H16.91C7.565 89 0 81.435 0 72.09V16.91C0 7.565 7.565 0 16.91 0Z" fill="#625A71"/>
<path d="M61.5867 72.5353H21.8038C21.0917 72.5353 20.4688 71.9123 20.4688 71.2003V23.4073C20.4688 22.6953 21.0917 22.0723 21.8038 22.0723H61.5867C62.2987 22.0723 62.9217 22.6953 62.9217 23.4073V71.2003C62.9217 71.9123 62.3877 72.5353 61.5867 72.5353ZM23.1388 69.8653H60.2517V24.7423H23.1388V69.8653Z" fill="white"/>
<path d="M67.1922 66.9278H61.5852C60.8732 66.9278 60.2502 66.3048 60.2502 65.5928C60.2502 64.8808 60.8732 64.2578 61.5852 64.2578H65.8572V19.1348H28.7442V23.4068C28.7442 24.1188 28.1212 24.7418 27.4092 24.7418C26.6972 24.7418 26.0742 24.1188 26.0742 23.4068V17.7998C26.0742 17.0878 26.6972 16.4648 27.4092 16.4648H67.1922C67.9042 16.4648 68.5272 17.0878 68.5272 17.7998V65.5928C68.5272 66.3938 67.9042 66.9278 67.1922 66.9278Z" fill="white"/>
<path d="M50.9062 37.38H33.2842C32.5722 37.38 31.9492 36.757 31.9492 36.045C31.9492 35.333 32.5722 34.71 33.2842 34.71H50.9062C51.6182 34.71 52.2412 35.333 52.2412 36.045C52.2412 36.757 51.6182 37.38 50.9062 37.38Z" fill="white"/>
<path d="M53.3991 52.0645H30.0811C29.3691 52.0645 28.7461 51.4415 28.7461 50.7295C28.7461 50.0175 29.3691 49.3945 30.0811 49.3945H53.3991C54.1111 49.3945 54.7341 50.0175 54.7341 50.7295C54.7341 51.4415 54.1111 52.0645 53.3991 52.0645Z" fill="white"/>
<path d="M43.0751 59.8966H30.0811C29.3691 59.8966 28.7461 59.2736 28.7461 58.5616C28.7461 57.8496 29.3691 57.2266 30.0811 57.2266H43.0751C43.7871 57.2266 44.4101 57.8496 44.4101 58.5616C44.4101 59.2736 43.7871 59.8966 43.0751 59.8966Z" fill="white"/>
</g>
<defs>
<clipPath id="clip0_831_31423">
<rect width="89" height="89" fill="white"/>
</clipPath>
</defs>
</svg>
