<svg width="89" height="89" viewBox="0 0 89 89" fill="none" xmlns="http://www.w3.org/2000/svg">
<g clip-path="url(#clip0_831_31418)">
<path d="M16.91 0H72.09C81.435 0 89 7.565 89 16.91V72.09C89 81.435 81.435 89 72.09 89H16.91C7.565 89 0 81.435 0 72.09V16.91C0 7.565 7.565 0 16.91 0Z" fill="#625A71"/>
<path d="M55.3582 72.179H55.2692C54.5572 72.09 54.0232 71.467 54.0232 70.755C54.1122 69.865 54.0232 68.975 54.0232 68.263C53.9342 66.394 53.8452 64.525 55.7142 63.19C56.6932 62.478 58.2952 62.478 60.4312 62.567C62.7452 62.567 65.9492 62.656 66.9282 61.41C67.3732 60.876 67.2842 59.897 66.8392 58.562L66.6612 58.117C65.9492 55.981 65.9492 55.269 67.4622 53.4C67.1952 53.044 66.6612 52.421 66.7502 51.62C66.8392 50.73 67.5512 50.285 67.9072 50.107C67.9072 50.018 67.8182 50.018 67.8182 49.929C67.2842 49.217 66.5722 47.615 66.8392 46.369C67.0172 45.657 67.4622 45.212 68.0852 44.856C68.4412 44.678 68.7972 44.589 69.1532 44.5C69.5982 44.411 70.7552 44.144 70.9332 43.788C70.8442 42.987 68.3522 39.605 67.0172 37.825C65.9492 36.401 64.9702 35.066 64.4362 34.176C64.0802 33.553 64.0802 32.663 64.1692 31.506C64.1692 31.239 64.1692 30.883 64.1692 30.705C63.2792 19.847 54.1122 17.088 48.6832 16.376C48.0602 16.287 47.4372 16.287 46.7252 16.198C44.5002 16.02 42.3642 16.109 40.3172 16.465C36.1342 17.088 30.3492 18.779 26.6112 23.674C22.4282 29.014 21.6272 36.935 24.5642 43.432C25.1872 44.767 25.9882 46.013 26.7892 47.348C27.5012 48.416 28.2132 49.573 28.8362 50.73C31.1502 55.269 30.7052 60.609 30.1712 65.682C29.9932 67.551 29.8152 69.242 29.8152 70.933C29.8152 71.645 29.1922 72.268 28.4802 72.268C27.7682 72.268 27.1452 71.645 27.1452 70.933C27.1452 69.153 27.3232 67.284 27.5012 65.504C27.9462 60.787 28.3912 55.892 26.4332 51.976C25.8992 50.908 25.1872 49.84 24.5642 48.772C23.6742 47.437 22.7842 46.013 22.0722 44.5C18.7792 37.202 19.7582 28.124 24.4752 21.983C28.8362 16.376 35.3332 14.418 39.9612 13.795C42.1862 13.439 44.5892 13.439 46.9922 13.528C47.7932 13.617 48.5052 13.617 49.1282 13.706C59.7192 15.041 66.2162 21.182 67.0172 30.438C67.0172 30.794 67.0172 31.15 67.0172 31.595C67.0172 31.951 66.9282 32.574 67.0172 32.841C67.4622 33.642 68.3522 34.888 69.3312 36.134C72.0902 39.783 73.6922 42.097 73.6922 43.788C73.6922 46.013 71.2002 46.636 69.8652 46.992C69.7762 46.992 69.5982 47.081 69.5092 47.081C69.5982 47.437 69.7762 47.882 69.9542 48.149C70.6662 49.039 70.8442 49.84 70.7552 50.552C70.6662 51.175 70.2212 51.62 69.8652 51.887C70.5772 52.866 70.5772 53.845 69.7762 54.735C68.7972 55.803 68.7972 55.803 69.2422 57.138L69.4202 57.583C70.1322 59.808 70.0432 61.588 69.0642 62.834C67.3732 65.148 63.5462 65.148 60.4312 65.148C59.3632 65.148 57.6722 65.148 57.3162 65.326C56.6932 65.771 56.6932 66.394 56.7822 68.085C56.7822 68.886 56.8712 69.865 56.7822 70.933C56.6042 71.645 56.0702 72.179 55.3582 72.179Z" fill="white"/>
<path d="M39.5151 40.406C39.1591 40.406 38.8031 40.228 38.5361 40.05L31.4161 33.019C30.8821 32.485 30.8821 31.684 31.4161 31.15C31.9501 30.616 32.7511 30.616 33.2851 31.15L39.1591 36.935L46.6351 22.962C46.9911 22.339 47.7921 22.072 48.4151 22.428C49.0381 22.784 49.3051 23.585 48.9491 24.208L40.5831 39.783C40.4051 40.139 40.0491 40.406 39.6041 40.495C39.6041 40.406 39.6041 40.406 39.5151 40.406Z" fill="white"/>
</g>
<defs>
<clipPath id="clip0_831_31418">
<rect width="89" height="89" fill="white"/>
</clipPath>
</defs>
</svg>
