<svg width="89" height="89" viewBox="0 0 89 89" fill="none" xmlns="http://www.w3.org/2000/svg">
<g clip-path="url(#clip0_831_31428)">
<path d="M16.91 0H72.09C81.435 0 89 7.565 89 16.91V72.09C89 81.435 81.435 89 72.09 89H16.91C7.565 89 0 81.435 0 72.09V16.91C0 7.565 7.565 0 16.91 0Z" fill="#625A71"/>
<path d="M46.9036 33.731C41.7416 33.731 37.5586 29.548 37.5586 24.386C37.5586 19.224 41.7416 15.041 46.9036 15.041C52.0656 15.041 56.2486 19.224 56.2486 24.386C56.2486 29.548 52.0656 33.731 46.9036 33.731ZM46.9036 17.711C43.2546 17.711 40.2286 20.737 40.2286 24.386C40.2286 28.035 43.2546 31.061 46.9036 31.061C50.5526 31.061 53.5786 28.035 53.5786 24.386C53.5786 20.737 50.5526 17.711 46.9036 17.711Z" fill="white"/>
<path d="M56.6946 72.1794C55.9826 72.1794 55.3596 71.5564 55.3596 70.8444V49.2174C55.3596 48.6834 55.7156 48.1494 56.1606 47.9714C56.6946 47.7934 57.2286 47.8824 57.5846 48.2384L73.1596 63.9914C73.8716 64.7034 75.1176 64.7034 75.9186 63.9914C76.6306 63.2794 76.7196 62.0334 75.9186 61.2324L57.8516 42.7204C56.7836 41.6524 55.2706 40.9404 53.6686 40.9404H14.5086C13.3516 40.9404 12.4616 41.7414 12.3726 42.8094C12.3726 43.3434 12.5506 43.8774 12.9066 44.2334C13.2626 44.5894 13.7966 44.8564 14.3306 44.8564H37.0256C37.7376 44.8564 38.3606 45.4794 38.3606 46.1914V70.8444C38.3606 71.5564 37.7376 72.1794 37.0256 72.1794C36.3136 72.1794 35.6906 71.5564 35.6906 70.8444V47.5264H14.3306C13.0846 47.5264 11.8386 46.9924 10.9486 46.1024C10.0586 45.2124 9.61358 43.9664 9.70258 42.7204C9.79158 40.3174 11.9276 38.3594 14.5086 38.3594H53.6686C55.8936 38.3594 58.1186 39.2494 59.7206 40.9404L77.7876 59.4524C79.5676 61.2324 79.5676 64.1694 77.7876 65.9494C76.0076 67.7294 73.0706 67.7294 71.2906 65.9494L58.0296 52.4214V70.8444C58.0296 71.5564 57.4956 72.1794 56.6946 72.1794Z" fill="white"/>
</g>
<defs>
<clipPath id="clip0_831_31428">
<rect width="89" height="89" fill="white"/>
</clipPath>
</defs>
</svg>
