<svg width="64" height="64" viewBox="0 0 64 64" fill="none" xmlns="http://www.w3.org/2000/svg">
<g clip-path="url(#clip0_267_2557)">
<path d="M32 64C49.6731 64 64 49.6731 64 32C64 14.3269 49.6731 0 32 0C14.3269 0 0 14.3269 0 32C0 49.6731 14.3269 64 32 64Z" fill="#EADDFF"/>
<path d="M18.7194 29.0286C20.6614 29.0286 22.2357 27.4543 22.2357 25.5124C22.2357 23.5704 20.6614 21.9961 18.7194 21.9961C16.7774 21.9961 15.2031 23.5704 15.2031 25.5124C15.2031 27.4543 16.7774 29.0286 18.7194 29.0286Z" fill="#21005D"/>
<path d="M45.2799 29.0286C47.2219 29.0286 48.7962 27.4543 48.7962 25.5124C48.7962 23.5704 47.2219 21.9961 45.2799 21.9961C43.338 21.9961 41.7637 23.5704 41.7637 25.5124C41.7637 27.4543 43.338 29.0286 45.2799 29.0286Z" fill="#21005D"/>
<path d="M41.2667 41.3047C38.5212 41.5288 35.3972 41.6556 32.0834 41.6556C28.7995 41.6556 25.702 41.5311 22.9746 41.3107" stroke="#21005D" stroke-width="5" stroke-linecap="round" stroke-linejoin="round"/>
</g>
<defs>
<clipPath id="clip0_267_2557">
<rect width="64" height="64" fill="white"/>
</clipPath>
</defs>
</svg>
