<svg width="64" height="64" viewBox="0 0 64 64" fill="none" xmlns="http://www.w3.org/2000/svg">
<g clip-path="url(#clip0_267_2559)">
<path d="M32 64C49.6731 64 64 49.6731 64 32C64 14.3269 49.6731 0 32 0C14.3269 0 0 14.3269 0 32C0 49.6731 14.3269 64 32 64Z" fill="#EADDFF"/>
<path d="M44.9765 24.4855C45.5866 22.0723 44.5531 19.7296 42.668 19.2529C40.7828 18.7763 38.76 20.3462 38.1498 22.7594C37.5396 25.1726 38.5731 27.5153 40.4583 27.992C42.3434 28.4686 44.3663 26.8988 44.9765 24.4855Z" fill="#21005D"/>
<path d="M20.0429 20.9742C20.4659 18.7739 19.4154 16.7224 17.6966 16.392C15.9778 16.0616 14.2415 17.5774 13.8186 19.7777C13.3956 21.978 14.4461 24.0296 16.1649 24.36C17.8837 24.6904 19.62 23.1745 20.0429 20.9742Z" fill="#21005D"/>
<path d="M39.6677 42.1744C39.6677 42.1744 26.7398 30.9715 14.0879 41.1068" stroke="#21005D" stroke-width="5" stroke-linecap="round" stroke-linejoin="round"/>
</g>
<defs>
<clipPath id="clip0_267_2559">
<rect width="64" height="64" fill="white"/>
</clipPath>
</defs>
</svg>
