<svg width="64" height="64" viewBox="0 0 64 64" fill="none" xmlns="http://www.w3.org/2000/svg">
<g clip-path="url(#clip0_267_2556)">
<path d="M32 64C49.6731 64 64 49.6731 64 32C64 14.3269 49.6731 0 32 0C14.3269 0 0 14.3269 0 32C0 49.6731 14.3269 64 32 64Z" fill="#EADDFF"/>
<path d="M20.3483 26.556C22.2903 26.556 23.8646 24.9817 23.8646 23.0397C23.8646 21.0977 22.2903 19.5234 20.3483 19.5234C18.4063 19.5234 16.832 21.0977 16.832 23.0397C16.832 24.9817 18.4063 26.556 20.3483 26.556Z" fill="#21005D"/>
<path d="M46.9088 21.0911C48.8508 21.0911 50.4251 19.5168 50.4251 17.5749C50.4251 15.6329 48.8508 14.0586 46.9088 14.0586C44.9669 14.0586 43.3926 15.6329 43.3926 17.5749C43.3926 19.5168 44.9669 21.0911 46.9088 21.0911Z" fill="#21005D"/>
<path d="M21.8887 37.5377C21.8887 37.5377 39.9059 44.5122 50.4838 31.1445" stroke="#21005D" stroke-width="5" stroke-linecap="round" stroke-linejoin="round"/>
</g>
<defs>
<clipPath id="clip0_267_2556">
<rect width="64" height="64" fill="white"/>
</clipPath>
</defs>
</svg>
