<svg width="48" height="48" viewBox="0 0 48 48" fill="none" xmlns="http://www.w3.org/2000/svg">
<rect x="0.5" y="0.5" width="47" height="47" rx="23.5" fill="white"/>
<rect x="0.5" y="0.5" width="47" height="47" rx="23.5" stroke="#EAECF0"/>
<path fill-rule="evenodd" clip-rule="evenodd" d="M21.0422 14.8242L21.0063 14.8002L21.0062 14.8002C20.6332 14.5515 20.2977 14.3278 20.013 14.1735C19.7282 14.0192 19.3372 13.8427 18.8808 13.87C18.297 13.9048 17.7578 14.1934 17.405 14.6598C17.1292 15.0244 17.059 15.4476 17.0295 15.7703C16.9999 16.0927 17 16.4959 17 16.9443L17 16.9443L17 16.9875L17 31.0515C17 31.4999 16.9999 31.9031 17.0295 32.2256C17.059 32.5482 17.1292 32.9714 17.405 33.336C17.7578 33.8024 18.297 34.091 18.8808 34.1258C19.3372 34.1531 19.7282 33.9767 20.013 33.8223C20.2977 33.668 20.6332 33.4444 21.0063 33.1956L31.591 26.1391C31.8962 25.9357 32.1792 25.7471 32.3965 25.5718C32.6234 25.3888 32.8908 25.1352 33.0447 24.7641C33.2481 24.2736 33.2481 23.7223 33.0447 23.2318C32.8908 22.8607 32.6234 22.607 32.3965 22.4241C32.1792 22.2488 31.8962 22.0602 31.591 21.8567L21.0422 14.8242Z" fill="#6941C6"/>
</svg>
