<svg width="120" height="120" viewBox="0 0 120 120" fill="none" xmlns="http://www.w3.org/2000/svg">
<g clip-path="url(#clip0_1467_10979)">
<path d="M60 120C93.1371 120 120 93.1371 120 60C120 26.8629 93.1371 0 60 0C26.8629 0 0 26.8629 0 60C0 93.1371 26.8629 120 60 120Z" fill="url(#paint0_linear_1467_10979)"/>
<mask id="mask0_1467_10979" style="mask-type:luminance" maskUnits="userSpaceOnUse" x="0" y="0" width="120" height="120">
<path d="M60 120C93.1371 120 120 93.1371 120 60C120 26.8629 93.1371 0 60 0C26.8629 0 0 26.8629 0 60C0 93.1371 26.8629 120 60 120Z" fill="white"/>
</mask>
<g mask="url(#mask0_1467_10979)">
<path d="M110.377 72.5801L139.902 80.5473C139.902 80.5473 137.833 140.045 122.143 128.997C101.02 114.124 75.6794 96.6702 73.0514 96.6414C56.84 96.5184 30.6603 84.8205 28.15 81.4016C24.8206 76.9002 29.3702 73.6549 29.3702 73.6549C25.2494 67.8528 28.0494 64.0837 30.3552 62.3352C31.4587 61.4984 32.5223 61.2239 32.5223 61.2239C28.2282 56.5372 29.6411 51.4913 32.1732 49.4207C34.4143 47.5829 37.8517 47.7616 37.8517 47.7616C37.2649 46.8922 36.625 46.0734 36.4652 45.0209C36.0522 42.3015 37.4758 39.1259 41.1343 37.6879C46.1085 35.7406 57.9455 40.3279 63.5106 42.642C64.3043 42.972 65.0589 42.0988 64.6166 41.3617C63.2308 39.0524 60.9645 35.3573 58.3744 31.7017C53.8801 25.3555 52.7614 16.4779 53.792 12.3642C54.5185 9.41722 57.6448 7.22609 60.5007 8.56772C61.5458 9.05869 62.5345 10.0389 63.0518 11.9409C63.4084 13.2878 64.351 15.0362 65.6769 17.0455C69.8038 23.4118 77.61 32.3732 82.1186 38.9787C88.065 47.6525 88.4981 49.993 92.128 59.5325C95.7589 69.0935 109.617 72.1665 110.377 72.5801Z" fill="#C97050"/>
<path d="M41.1407 37.7188C37.305 39.4608 34.7495 44.4336 38.1997 47.7858C40.1957 49.2643 42.6368 50.1977 44.8775 51.2997C51.0828 54.0417 57.2238 56.9982 63.5583 59.416C66.4041 60.4 70.5707 62.219 72.4144 58.7873C74.1874 55.6039 71.2286 52.4266 68.441 51.0648C62.4043 47.9264 56.7134 44.1849 50.7045 41.03C53.7504 42.1776 56.8146 44.1107 59.7804 45.6693C59.7803 45.6694 68.721 50.5442 68.721 50.5442C70.2271 51.3683 71.6905 52.4236 72.6447 53.9364C74.9131 57.0454 72.3642 62.0886 68.3467 61.2351C63.3024 60.1994 58.8083 57.5914 54.08 55.6827C54.08 55.6826 44.6908 51.7178 44.6908 51.7178C41.761 50.2314 37.6894 49.3475 36.5005 45.8902C35.1759 42.4298 38.0574 38.7412 41.1407 37.7188Z" fill="#BC644A"/>
<path d="M37.8439 47.7677C34.9298 47.8643 31.4645 49.0563 30.4691 52.0348C29.1503 56.3803 31.6081 61.4319 36.2594 62.3221C39.021 63.2521 46.5355 65.7157 49.4034 66.6549C52.4059 67.593 59.5923 70.1032 62.5322 70.851C67.6411 72.0853 69.7197 65.0687 65.8805 62.2062C63.5724 60.186 60.8652 58.7043 58.1158 57.3212C60.926 58.5495 63.7414 59.8975 66.189 61.8165C68.8455 63.7008 69.409 67.9975 67.0102 70.4535C64.4529 73.0716 60.7729 71.2198 57.8892 70.4109C51.5228 68.4411 42.2474 65.3335 35.9803 63.148C31.109 62.198 28.3588 56.4353 30.0103 51.8622C31.2329 48.7754 34.8174 47.7124 37.8439 47.7677Z" fill="#BC644A"/>
<path d="M32.5446 61.2656C27.7549 63.123 26.0163 69.388 29.5268 73.1488C33.3593 76.1833 38.8863 76.5973 43.5994 77.4699C48.5735 78.1941 53.5652 78.7794 58.5423 79.4197C60.826 79.7715 63.5969 79.877 64.793 77.6018C65.8866 75.5445 64.8864 72.6727 62.7623 71.3661L62.8115 71.2778C66.752 72.9759 67.1196 79.391 62.3432 80.4322C56.0102 80.9132 49.7284 79.0634 43.5004 78.0238C43.5004 78.0234 36.118 76.3919 36.118 76.3919C33.6568 75.6903 30.9855 75.4963 28.9341 73.7373C24.8209 69.6731 27.1174 62.1857 32.5446 61.2656Z" fill="#BC644A"/>
<path d="M29.6873 73.7422C27.7265 74.6833 26.8619 76.9877 27.3079 79.0428C27.6802 81.1267 29.6828 82.3806 31.5517 83.1644C35.4479 84.7306 39.7029 85.2158 43.8839 85.6379C48.0782 86.0893 52.3153 86.2846 56.5274 86.5679C57.5539 86.6135 58.6081 86.4394 59.4821 85.9245C62.8655 83.674 59.9616 79.89 56.7156 79.6788C60.2097 79.7491 63.2635 83.7927 59.6641 86.2222C58.7164 86.8004 57.5933 86.9962 56.5167 86.9666C48.0925 86.4594 39.3812 86.6822 31.3916 83.5348C29.4784 82.6903 27.3606 81.337 27.0145 79.0891C26.6534 76.9652 27.6437 74.5995 29.6873 73.7422Z" fill="#BC644A"/>
<path d="M66.2227 51.9403C65.7242 51.7938 65.1925 51.9333 64.88 52.2897C64.4371 52.7948 63.7806 54.1362 63.2422 55.3327C62.6952 56.5482 63.3409 57.7055 64.92 58.4028C66.9377 59.2936 69.5414 59.9016 70.7558 57.8673C72.2154 55.4222 70.5906 53.2236 66.2227 51.9403Z" fill="#D17B61"/>
<path d="M65.6761 17.0481C65.4719 17.2762 65.1991 17.4432 64.8794 17.5476C63.6191 17.8993 62.1857 18.2606 61.4876 18.1908C61.0082 18.1522 60.5302 17.7449 60.3008 17.1284C58.4432 12.5672 58.5786 9.52264 60.4999 8.57031C61.5847 8.96592 62.5337 10.0415 63.051 11.9435C63.4076 13.2904 64.3502 15.0388 65.6761 17.0481Z" fill="#D17B61"/>
<path d="M60.4407 61.5672C59.9012 61.464 59.3637 61.6503 59.083 62.035C58.6852 62.5801 58.1714 63.9824 57.7624 65.2292C57.3469 66.4957 58.1697 67.5995 59.9087 68.1605C62.1305 68.8771 64.9282 69.259 65.9359 67.1131C67.1471 64.534 65.1679 62.4718 60.4407 61.5672Z" fill="#D17B61"/>
<path d="M57.9852 71.569C57.4408 71.4954 56.9144 71.7108 56.6551 72.1104C56.2878 72.6765 55.8515 74.1048 55.5114 75.372C55.1659 76.6594 56.048 77.7165 57.8151 78.1814C60.0728 78.7754 62.8872 79.0035 63.7759 76.8057C64.844 74.164 62.7548 72.2134 57.9852 71.569Z" fill="#D17B61"/>
<path d="M54.2276 80.5391C53.8151 80.5353 53.4431 80.745 53.2873 81.0669C53.0666 81.5231 52.8753 82.628 52.7405 83.6039C52.6036 84.5953 53.3596 85.3003 54.7196 85.4813C56.4571 85.7125 58.5752 85.6191 59.0316 83.8986C59.5802 81.8307 57.8412 80.5729 54.2276 80.5391Z" fill="#D17B61"/>
<path d="M73.7715 96.6546C77.5433 93.2023 80.5491 89.1029 83.7064 85.0938C81.247 89.5451 78.0653 93.8352 73.7715 96.6546Z" fill="#BC644A"/>
<path d="M70.2227 68.9297C73.4181 73.7534 79.563 74.42 84.7382 72.9966C84.7382 72.9969 82.7947 73.6929 82.7947 73.6929C78.1685 75.1115 72.3331 73.5951 70.2227 68.9297Z" fill="#BC644A"/>
</g>
</g>
<defs>
<linearGradient id="paint0_linear_1467_10979" x1="60" y1="120" x2="60" y2="0" gradientUnits="userSpaceOnUse">
<stop stop-color="#D6D2FE"/>
<stop offset="1" stop-color="#E6E6FE"/>
</linearGradient>
<clipPath id="clip0_1467_10979">
<rect width="120" height="120" fill="white"/>
</clipPath>
</defs>
</svg>
