<svg width="140" height="140" viewBox="0 0 140 140" fill="none" xmlns="http://www.w3.org/2000/svg">
<g clip-path="url(#clip0_2201_45587)">
<path d="M70 140C108.66 140 140 108.66 140 70C140 31.3401 108.66 0 70 0C31.3401 0 0 31.3401 0 70C0 108.66 31.3401 140 70 140Z" fill="url(#paint0_linear_2201_45587)"/>
<path d="M74.0945 27.4814H13.3337C9.46775 27.4814 6.33374 30.6155 6.33374 34.4814V105.518C6.33374 109.384 9.46775 112.518 13.3337 112.518H74.0945C77.9605 112.518 81.0945 109.384 81.0945 105.518V34.4814C81.0945 30.6155 77.9605 27.4814 74.0945 27.4814Z" fill="#6D5FCB"/>
<path d="M95.9512 28.9554L97.5633 66.7018C97.6196 68.021 99.3386 68.4867 100.053 67.3764L109.947 52.0019C110.184 51.6348 110.582 51.4043 111.018 51.3827L129.279 50.4782C130.598 50.4128 131.052 48.6907 129.937 47.9837L98.0277 27.7548C97.1046 27.1696 95.9045 27.8635 95.9512 28.9554Z" fill="#6D5FCB"/>
<path d="M87.433 106.018L101.051 90.8574L111.813 101.657L133.428 78.1338" stroke="#3C2F9B" stroke-width="4" stroke-miterlimit="10"/>
<path d="M118.24 75.9521H135.085V92.7972" stroke="#3C2F9B" stroke-width="4" stroke-miterlimit="10"/>
<path d="M22.523 53.6453C25.6158 53.6453 28.123 51.1381 28.123 48.0453C28.123 44.9525 25.6158 42.4453 22.523 42.4453C19.4302 42.4453 16.923 44.9525 16.923 48.0453C16.923 51.1381 19.4302 53.6453 22.523 53.6453Z" fill="white"/>
<path d="M70.4624 42.2676H40.104V46.4676H70.4624V42.2676Z" fill="#E5E5F9"/>
<path d="M56.5745 49.623H40.104V53.823H56.5745V49.623Z" fill="#E5E5F9"/>
<path d="M21.599 75.6004C24.6918 75.6004 27.199 73.0932 27.199 70.0004C27.199 66.9076 24.6918 64.4004 21.599 64.4004C18.5062 64.4004 15.999 66.9076 15.999 70.0004C15.999 73.0932 18.5062 75.6004 21.599 75.6004Z" fill="white"/>
<path d="M73.0437 67.8994H39.1812V72.0994H73.0437V67.8994Z" fill="#E5E5F9"/>
<path d="M20.6751 97.5545C23.7679 97.5545 26.2751 95.0473 26.2751 91.9545C26.2751 88.8617 23.7679 86.3545 20.6751 86.3545C17.5823 86.3545 15.0751 88.8617 15.0751 91.9545C15.0751 95.0473 17.5823 97.5545 20.6751 97.5545Z" fill="white"/>
<path d="M61.562 86.1758H38.2569V90.3758H61.562V86.1758Z" fill="#E5E5F9"/>
<path d="M68.3925 93.5332H38.2569V97.7332H68.3925V93.5332Z" fill="#E5E5F9"/>
</g>
<defs>
<linearGradient id="paint0_linear_2201_45587" x1="70" y1="140" x2="70" y2="0" gradientUnits="userSpaceOnUse">
<stop stop-color="#D6D2FE"/>
<stop offset="1" stop-color="#E6E6FE"/>
</linearGradient>
<clipPath id="clip0_2201_45587">
<rect width="140" height="140" fill="white"/>
</clipPath>
</defs>
</svg>
