<?xml version="1.0" encoding="UTF-8"?>
<!DOCTYPE svg PUBLIC "-//W3C//DTD SVG 1.1//EN" "http://www.w3.org/Graphics/SVG/1.1/DTD/svg11.dtd">
<!-- Creator: CorelDRAW -->
<svg xmlns="http://www.w3.org/2000/svg" xml:space="preserve" width="1.70666in" height="1.70666in" version="1.1" style="shape-rendering:geometricPrecision; text-rendering:geometricPrecision; image-rendering:optimizeQuality; fill-rule:evenodd; clip-rule:evenodd"
viewBox="0 0 1706.66 1706.66"
 xmlns:xlink="http://www.w3.org/1999/xlink"
 xmlns:xodm="http://www.corel.com/coreldraw/odm/2003">
 <defs>
  <style type="text/css">
   <![CDATA[
    .fil0 {fill:black}
   ]]>
  </style>
 </defs>
 <g id="Layer_x0020_1">
  <metadata id="CorelCorpID_0Corel-Layer"/>
  <path class="fil0" d="M1455.03 1706.65l-1203.4 0c-11.04,0 -20,-8.97 -20,-20l0 -1666.64c0,-11.04 8.96,-20 20,-20l1203.4 0c11.04,0 20,8.96 20,20l0 1666.64c0.02,11.04 -8.96,20 -20,20zm-1183.4 -40l1163.4 0 0 -1626.64 -1163.4 0 0 1626.64z"/>
  <path class="fil0" d="M508.9 1008.81c-14.23,0 -39.37,-31.1 -56.13,-47.86 -18.64,-18.64 9.69,-46.91 28.28,-28.3l27.86 27.87 93.4 -93.42c18.62,-18.65 46.89,9.7 28.28,28.3l-107.54 107.54c-3.75,3.75 -8.83,5.86 -14.14,5.86z"/>
  <path class="fil0" d="M676.05 1089.42l-268.78 0c-11.04,0 -20,-8.97 -20,-20l0 -268.78c0,-11.04 8.96,-20 20,-20l268.78 0c11.04,0 20,8.96 20,20l0 268.78c0,11.04 -8.94,20 -20,20zm-248.78 -40.02l228.78 0 0 -228.76 -228.78 0 0 228.76z"/>
  <path class="fil0" d="M508.9 1437.97c-14.22,0 -39.37,-31.09 -56.13,-47.86 -18.64,-18.64 9.69,-46.91 28.28,-28.3l27.86 27.87 93.4 -93.4c18.64,-18.64 46.89,9.69 28.28,28.29l-107.54 107.53c-3.91,3.91 -9.02,5.86 -14.14,5.86z"/>
  <path class="fil0" d="M676.05 1518.58l-268.78 0c-11.04,0 -20,-8.97 -20,-20l0 -268.78c0,-11.04 8.96,-20 20,-20l268.78 0c11.04,0 20,8.97 20,20l0 268.78c0,11.04 -8.94,20 -20,20zm-248.78 -40l228.78 0 0 -228.76 -228.78 0 0 228.76z"/>
  <path class="fil0" d="M1299.37 873.8l-507.05 0c-26.33,0 -26.33,-40 0,-40l507.05 0c26.32,0 26.33,40 0,40z"/>
  <path class="fil0" d="M1299.37 1036.3l-507.05 0c-26.33,0 -26.33,-40 0,-40l507.05 0c26.32,0 26.32,40 0,40z"/>
  <path class="fil0" d="M1299.37 1302.94l-507.05 0c-26.33,0 -26.33,-40 0,-40l507.05 0c26.32,0 26.32,40 0,40z"/>
  <path class="fil0" d="M1299.37 1465.44l-507.05 0c-26.33,0 -26.33,-40 0,-40l507.05 0c26.32,0 26.32,40 0,40z"/>
  <path class="fil0" d="M853.33 673.91c-133.94,0 -242.92,-108.97 -242.92,-242.91 0,-133.95 108.97,-242.92 242.92,-242.92 133.94,0 242.92,108.97 242.92,242.92 0,133.94 -108.98,242.91 -242.92,242.91zm0 -445.83c-111.89,0 -202.92,91.03 -202.92,202.92 0,111.89 91.03,202.92 202.92,202.92 111.89,0 202.9,-91.03 202.9,-202.92 0,-111.89 -91.01,-202.92 -202.9,-202.92z"/>
  <path class="fil0" d="M1076.09 451l-222.76 0c-10.15,0 -18.69,-7.61 -19.87,-17.7l-25.64 -221.46c-3.04,-26.24 36.72,-30.7 39.74,-4.6l23.6 203.75 204.94 0c26.33,0 26.33,40 0,40z"/>
  <path class="fil0" d="M695.7 608.62c-17.62,0 -26.8,-21.49 -14.14,-34.14l157.63 -157.63c18.63,-18.63 46.93,9.66 28.3,28.28l-157.64 157.63c-3.91,3.91 -9.02,5.87 -14.15,5.87z"/>
 </g>
</svg>
