<svg width="154" height="29" viewBox="0 0 154 29" fill="none" xmlns="http://www.w3.org/2000/svg">
<path d="M27.5206 20.986C27.0397 20.8132 26.6682 20.5799 26.4176 20.2919C26.1656 20.0039 26.0159 19.6684 25.9583 19.2667C25.8978 18.8448 25.905 18.3912 25.9799 17.916L28.2262 3.73828H23.9726L21.7349 17.8627C21.5621 18.9556 21.5477 19.9723 21.6931 20.8866C21.8414 21.8211 22.1986 22.6419 22.7515 23.3245C23.3044 24.0084 24.082 24.5498 25.0583 24.93C26.0216 25.3073 27.2369 25.4988 28.6697 25.4988H37.3569L38.0293 21.2509H29.4761C28.6711 21.2509 28.0131 21.1617 27.5206 20.9831V20.986Z" fill="black"/>
<path d="M71.1392 19.7491C70.4322 18.7339 70.2623 17.0276 70.6352 14.6776C71.0125 12.2945 71.7397 10.5622 72.7966 9.52831C73.8434 8.50451 75.3755 7.98469 77.3468 7.98469H85.782L86.4545 3.73828H77.9343C74.7779 3.73828 72.1803 4.64545 70.2147 6.43386C68.255 8.21796 66.9691 10.9625 66.3946 14.5926C65.82 18.217 66.2448 20.9687 67.6545 22.7715C69.07 24.5815 71.3969 25.5002 74.572 25.5002H83.0072L83.6797 21.2524H75.1595C73.1868 21.2524 71.8332 20.7455 71.1392 19.7476V19.7491Z" fill="black"/>
<path d="M131.251 5.73981C130.76 5.13071 130.084 4.63969 129.243 4.27826C128.41 3.91971 127.364 3.73828 126.139 3.73828H114.4L113.728 7.98469H125.677C126.605 7.98469 127.243 8.2266 127.573 8.70322C127.919 9.20432 128.034 9.78318 127.924 10.4744C127.87 10.8243 127.76 11.1699 127.6 11.501C127.442 11.8293 127.235 12.1217 126.986 12.3708C126.736 12.6184 126.424 12.8215 126.054 12.9741C125.687 13.1267 125.252 13.2045 124.765 13.2045H116.496C115.262 13.2045 114.303 13.491 113.649 14.0555C112.995 14.62 112.563 15.5415 112.364 16.7943L110.986 25.5002H115.24L116.491 17.6007C116.526 17.376 116.622 17.2925 116.845 17.2925H122.204L125.746 25.5002H130.447L126.814 16.9152C127.575 16.682 128.254 16.3594 128.837 15.9562C129.493 15.5012 130.06 14.9699 130.521 14.3752C130.981 13.7834 131.357 13.1368 131.638 12.4572C131.917 11.7789 132.113 11.0863 132.223 10.4009C132.359 9.53839 132.355 8.69314 132.211 7.89109C132.064 7.07464 131.742 6.35179 131.252 5.74125L131.251 5.73981Z" fill="black"/>
<path d="M18.2449 16.5424L18.8627 12.6416H4.0816L3.37891 16.5424H18.2449Z" fill="black"/>
<path d="M19.7557 7.98469L20.4282 3.73828H5.68597L4.91992 7.98469H19.7557Z" fill="black"/>
<path d="M153.198 7.98469L153.87 3.73828H140.074H135.82L133.583 17.8627C133.41 18.9556 133.395 19.9723 133.541 20.8866C133.689 21.8211 134.046 22.6419 134.599 23.3245C135.152 24.0084 135.93 24.5498 136.906 24.93C137.869 25.3073 139.085 25.4988 140.517 25.4988H150.277L150.95 21.2509H141.324C140.519 21.2509 139.861 21.1617 139.368 20.9831C138.887 20.8103 138.516 20.577 138.265 20.289C138.013 20.0011 137.864 19.6655 137.806 19.2638C137.745 18.8419 137.753 18.3883 137.828 17.9131L138.045 16.5365H151.684L152.302 12.6357H138.663L139.4 7.98325H153.196L153.198 7.98469Z" fill="black"/>
<path d="M87.0215 25.5055H89.5198L90.7495 23.2793C89.5054 24.0453 88.2584 24.7884 87.0215 25.5055Z" fill="black"/>
<path d="M104.844 6.30792C104.611 5.23372 104.128 4.46191 103.408 4.01409C102.71 3.58066 101.77 3.36035 100.612 3.36035C99.4542 3.36035 98.4304 3.57634 97.6082 4.00401C96.7745 4.43599 96.0588 5.18765 95.4785 6.23449L85 25.4996H89.5186L99.0237 8.29361C99.2598 7.89619 99.5708 7.70179 99.9769 7.70179C100.357 7.70179 100.554 7.85587 100.638 8.21442L101.048 10.0849L104.426 25.4996H109.095L104.841 6.30649L104.844 6.30792Z" fill="black"/>
<path d="M5.92686 20.986C5.44591 20.8132 5.07441 20.5799 4.82386 20.2919C4.57186 20.0039 4.42211 19.6684 4.36451 19.2667C4.30403 18.8448 4.31123 18.3912 4.38611 17.916L6.63243 3.73828H2.37882L0.141144 17.8627C-0.0316499 18.9556 -0.0460493 19.9723 0.0993854 20.8866C0.2477 21.8211 0.604807 22.6419 1.15775 23.3245C1.71069 24.0084 2.48826 24.5498 3.46454 24.93C4.42787 25.3073 5.64319 25.4988 7.07593 25.4988H16.8359L17.5084 21.2509H7.88231C7.07737 21.2509 6.41932 21.1617 5.92686 20.9831V20.986Z" fill="black"/>
<path d="M57.6948 0C56.0331 1.12172 52.953 1.81289 51.1517 1.81289C44.2154 1.81289 38.5723 7.45605 38.5723 14.3923C38.5723 18.9281 40.9856 22.9096 44.5956 25.1228L45.2752 23.8211L47.3012 19.9433L47.7663 19.0534L53.1546 8.7376L53.9322 7.2487L55.5392 4.17297L57.6933 0L57.6948 0Z" fill="black"/>
<path d="M57.2055 3.36816L56.5316 4.6598C59.9543 6.55909 62.2784 10.2079 62.2784 14.3924C62.2784 20.5266 57.2875 25.5174 51.1534 25.5174C49.3894 25.5174 47.7248 25.0941 46.2417 24.3597L43.9824 28.7991C46.2417 26.9286 49.1461 26.9718 51.1534 26.9718C58.0896 26.9718 63.7327 21.3286 63.7327 14.3924C63.7327 9.64922 61.0933 5.51225 57.2069 3.36816H57.2055Z" fill="black"/>
</svg>
