<svg width="257" height="46" viewBox="0 0 257 46" fill="none" xmlns="http://www.w3.org/2000/svg">
<path d="M31.8394 4.91016H1.1198L0 11.978H11.7964L6.51476 45.3361H13.6416L18.9232 11.978H30.7241L31.8394 4.91016Z" fill="black"/>
<path d="M36.0234 15.9305C34.4911 17.4085 33.4755 19.7433 32.9678 22.9394L29.418 45.3399H35.765L39.1606 23.9006C39.5913 21.1849 41.16 19.8294 43.8756 19.8294H55.0146L55.9803 13.7227H42.987C39.8724 13.7227 37.5467 14.4616 36.0189 15.9396L36.0234 15.9305Z" fill="black"/>
<path d="M85.0538 32.6348C84.7591 34.5117 83.8524 36.0667 82.3382 37.3044C80.824 38.542 78.811 39.1586 76.2949 39.1586H71.1448C68.6286 39.1586 66.8016 38.542 65.6591 37.3044C64.5167 36.0667 64.095 34.5117 64.3942 32.6348L67.3909 13.707H60.985L57.9475 32.8705C57.6573 34.7066 57.68 36.384 58.02 37.9028C58.36 39.4215 59.0219 40.7272 60.0057 41.8243C60.9895 42.9215 62.2816 43.7783 63.882 44.3994C65.4823 45.0205 67.4181 45.3288 69.694 45.3288H75.5605C77.8363 45.3288 79.8719 45.0205 81.6672 44.3994C83.4625 43.7783 85.0221 42.9215 86.3595 41.8243C87.6924 40.7272 88.7668 39.4215 89.5874 37.9028C90.408 36.384 90.9611 34.7066 91.2512 32.8705L94.2887 13.707H88.0596L85.0629 32.6348H85.0538Z" fill="black"/>
<path d="M128.39 16.2582C126.98 14.5626 124.401 13.7148 120.647 13.7148H110.406C108.411 13.7148 106.679 13.9778 105.224 14.4946C103.764 15.016 102.508 15.7414 101.461 16.6798C100.414 17.6183 99.5885 18.729 98.9901 20.0029C98.3871 21.2814 97.97 22.6596 97.7388 24.1376L96.0296 34.9184C95.7893 36.4372 95.7712 37.8245 95.9707 39.0803C96.1702 40.3361 96.6462 41.4377 97.3942 42.3716C98.1468 43.3101 99.1669 44.04 100.463 44.5568C101.756 45.0782 103.401 45.3366 105.401 45.3366H124.745L125.72 39.1664H106.375C104.616 39.1664 103.438 38.7584 102.825 37.9378C102.218 37.1218 102.014 36.0745 102.218 34.796L102.576 32.5202H117.61C121.481 32.5202 124.36 31.7313 126.251 30.1536C128.136 28.5759 129.311 26.3318 129.773 23.4167C130.258 20.3429 129.8 17.9583 128.39 16.2582ZM123.49 23.7749C123.304 24.9355 122.81 25.8513 122.007 26.5313C121.2 27.2113 119.94 27.5514 118.222 27.5514H103.37L103.9 24.1965C104.095 22.9588 104.63 21.9206 105.5 21.0819C106.371 20.2432 107.685 19.8216 109.445 19.8216H119.627C121.186 19.8216 122.265 20.1797 122.868 20.9006C123.471 21.6169 123.68 22.578 123.494 23.7749H123.49Z" fill="black"/>
<path d="M146.276 5.95804C144.268 6.65621 142.568 7.6264 141.176 8.86407C139.784 10.1017 138.682 11.5706 137.875 13.2662C137.068 14.9617 136.502 16.8296 136.18 18.8652L131.986 45.3368H139.05L141.584 29.3468H165.961L167.022 22.6371H142.645L143.252 18.8062C143.406 17.8451 143.674 16.9611 144.064 16.1405C144.454 15.3244 145.016 14.6036 145.755 13.9825C146.489 13.3659 147.428 12.8763 148.561 12.5136C149.695 12.1555 151.064 11.9741 152.659 11.9741H168.949L170.068 4.90625H153.299C150.624 4.90625 148.28 5.25534 146.276 5.95351V5.95804Z" fill="black"/>
<path d="M195.194 13.7148H184.953C182.958 13.7148 181.226 13.9778 179.771 14.4946C178.311 15.016 177.06 15.7414 176.008 16.6798C174.961 17.6183 174.136 18.729 173.537 20.0029C172.934 21.2814 172.517 22.6596 172.282 24.1376L170.572 34.9184C170.332 36.4372 170.31 37.8245 170.514 39.0803C170.713 40.3361 171.189 41.4377 171.937 42.3716C172.685 43.3101 173.71 44.04 175.006 44.5568C176.298 45.0782 177.944 45.3366 179.943 45.3366H199.288L200.263 39.1664H180.918C179.159 39.1664 177.98 38.7584 177.368 37.9378C176.761 37.1218 176.557 36.0745 176.761 34.796L177.124 32.5202H192.157C196.029 32.5202 198.907 31.7313 200.798 30.1536C202.684 28.5759 203.858 26.3318 204.321 23.4167C204.806 20.3429 204.348 17.9583 202.938 16.2582C201.528 14.5626 198.948 13.7148 195.194 13.7148ZM198.032 23.7749C197.847 24.9355 197.352 25.8513 196.55 26.5313C195.743 27.2113 194.483 27.5514 192.764 27.5514H177.912L178.443 24.1965C178.638 22.9588 179.173 21.9206 180.043 21.0819C180.914 20.2432 182.228 19.8216 183.987 19.8216H194.17C195.725 19.8216 196.808 20.1797 197.411 20.9006C198.014 21.6169 198.223 22.578 198.037 23.7749H198.032Z" fill="black"/>
<path d="M232.138 13.7148H221.896C219.902 13.7148 218.17 13.9778 216.714 14.4946C215.255 15.016 214.003 15.7414 212.952 16.6798C211.904 17.6183 211.079 18.729 210.481 20.0029C209.878 21.2814 209.461 22.6596 209.225 24.1376L207.516 34.9184C207.276 36.4372 207.253 37.8245 207.457 39.0803C207.656 40.3361 208.132 41.4377 208.88 42.3716C209.628 43.3101 210.653 44.04 211.95 44.5568C213.242 45.0782 214.887 45.3366 216.887 45.3366H236.232L237.206 39.1664H217.861C216.102 39.1664 214.924 38.7584 214.312 37.9378C213.704 37.1218 213.5 36.0745 213.704 34.796L214.067 32.5202H229.1C232.972 32.5202 235.851 31.7313 237.741 30.1536C239.627 28.5759 240.801 26.3318 241.264 23.4167C241.749 20.3429 241.291 17.9583 239.881 16.2582C238.471 14.5626 235.892 13.7148 232.138 13.7148ZM234.976 23.7749C234.79 24.9355 234.296 25.8513 233.493 26.5313C232.686 27.2113 231.426 27.5514 229.708 27.5514H214.856L215.386 24.1965C215.581 22.9588 216.116 21.9206 216.986 21.0819C217.857 20.2432 219.172 19.8216 220.931 19.8216H231.113C232.673 19.8216 233.752 20.1797 234.355 20.9006C234.958 21.6169 235.166 22.578 234.98 23.7749H234.976Z" fill="black"/>
<path d="M250.654 0L243.473 45.3359H249.82L257.001 0H250.654Z" fill="black"/>
</svg>
