<svg width="56" height="56" viewBox="0 0 56 56" fill="none" xmlns="http://www.w3.org/2000/svg">
<rect width="56" height="56" rx="28" fill="#EAECF0"/>
<path d="M20.5 24.5C20.5 23.0999 20.5 22.3998 20.7725 21.865C21.0122 21.3946 21.3946 21.0122 21.865 20.7725C22.3998 20.5 23.0999 20.5 24.5 20.5H31.5C32.9001 20.5 33.6002 20.5 34.135 20.7725C34.6054 21.0122 34.9878 21.3946 35.2275 21.865C35.5 22.3998 35.5 23.0999 35.5 24.5V31.5C35.5 32.9001 35.5 33.6002 35.2275 34.135C34.9878 34.6054 34.6054 34.9878 34.135 35.2275C33.6002 35.5 32.9001 35.5 31.5 35.5H24.5C23.0999 35.5 22.3998 35.5 21.865 35.2275C21.3946 34.9878 21.0122 34.6054 20.7725 34.135C20.5 33.6002 20.5 32.9001 20.5 31.5V24.5Z" fill="#F04438"/>
</svg>
