<svg width="616" height="174" viewBox="0 0 616 174" fill="none" xmlns="http://www.w3.org/2000/svg">
<g clip-path="url(#clip0_4555_98304)">
<path d="M0 173.554L616 173.554V0.447586L0 0.447586V173.554Z" fill="url(#paint0_linear_4555_98304)"/>
<path opacity="0.2" d="M560.523 40.8396C560.523 87.0186 526.465 124.475 484.509 124.475C442.528 124.475 408.496 87.0186 408.496 40.8396C408.496 26.19 411.907 12.4153 417.908 0.447266H551.085C557.112 12.4153 560.523 26.19 560.523 40.8396Z" fill="#FCFCFC"/>
<path opacity="0.3" d="M316.213 173.554H87.9258C93.7189 109.822 142.632 60.0537 202.082 60.0537C261.533 60.0537 310.42 109.822 316.213 173.554Z" fill="#FCFCFC"/>
<mask id="mask0_4555_98304" style="mask-type:luminance" maskUnits="userSpaceOnUse" x="0" y="0" width="616" height="174">
<path d="M0 173.554L616 173.554V0.447586L0 0.447586V173.554Z" fill="white"/>
</mask>
<g mask="url(#mask0_4555_98304)">
<path d="M332.873 117.733L409.424 154.157C411.891 155.331 414.765 154.603 416.517 152.36L499.744 45.8271L519.978 213.772L368.326 227.172C368.326 227.172 289.456 143.235 283.98 142.291C264.587 139.02 235.272 118.58 232.861 113.593C229.658 107.021 235.672 103.615 235.672 103.615C231.748 95.1774 235.758 90.7461 238.824 88.8835C240.292 87.9921 241.613 87.8343 241.613 87.8343C237.287 80.8331 239.858 74.4529 243.252 72.2091C246.256 70.2165 250.341 71.1112 250.341 71.1112C249.79 69.8526 249.166 68.6507 249.158 67.2328C249.137 63.569 251.395 59.6562 256.027 58.4623C262.324 56.8494 275.7 65.1659 281.962 69.2833C282.855 69.8706 283.911 68.8643 283.509 67.8079C282.252 64.4982 280.182 59.193 277.717 53.8778C273.44 44.6509 273.647 32.7345 275.598 27.5097C276.982 23.7646 281.107 21.4759 284.294 23.792C285.46 24.6396 286.473 26.1212 286.761 28.7275C286.954 30.5713 287.778 33.0567 289.016 35.9594C292.849 45.1424 300.636 58.4515 304.885 68.0231C310.495 80.5965 310.606 83.7646 313.291 97.0349C315.974 110.334 332.035 117.042 332.873 117.733Z" fill="#C97050"/>
<path d="M256.031 58.5049C251.149 60.0752 247.227 66.1237 250.769 71.1923C252.901 73.5162 255.661 75.2173 258.148 77.0999C265.096 81.9099 271.931 86.9928 279.099 91.3837C280.906 92.4268 282.738 93.4999 284.669 94.093C288.762 95.6455 292.23 90.2238 290.269 86.2419C289.479 84.2591 287.981 82.6717 286.38 81.3522C279.787 76.0159 273.298 70.0289 266.949 64.6311C270.442 67.0345 273.694 69.8229 276.978 72.5389L286.837 80.6746C288.494 82.0565 290.078 83.7222 290.948 85.9125C291.852 88.0522 291.77 90.83 290.35 92.7317C287.33 97.2692 282.255 93.9454 278.888 91.8006C275.301 89.5629 271.912 86.9967 268.388 84.6685C263.451 81.0793 254.426 76.2056 250.293 71.6133C246.623 66.2149 250.775 59.448 256.031 58.5049Z" fill="#BC644A"/>
<path d="M250.33 71.1217C246.827 70.698 242.474 71.6117 240.773 75.3436C238.453 80.8101 240.508 87.9044 245.914 89.9653C249.06 91.7193 257.631 96.4046 260.903 98.1912C264.33 100.003 272.504 104.695 275.887 106.243C281.759 108.838 285.448 100.041 281.375 95.5465C278.97 92.4369 275.991 89.9592 272.943 87.6019C276.098 89.7532 279.241 92.0643 281.844 95.0593C284.708 98.0585 284.644 103.85 281.327 106.648C277.798 109.625 273.695 106.477 270.374 104.852C263.09 101.04 252.525 95.1611 245.402 91.0747C239.724 88.8842 237.426 80.7252 240.217 75.0055C242.229 71.1672 246.712 70.4602 250.33 71.1217Z" fill="#BC644A"/>
<path d="M241.635 87.8945C235.598 89.4577 232.454 97.3342 235.979 102.951C240.021 107.692 246.568 109.314 252.058 111.343C259.279 113.324 266.549 116.537 273.88 117.543C278.838 117.412 279.644 110.14 276.06 107.002C278.675 108.171 280.072 113.142 278.221 116.215C277.325 117.821 275.624 118.749 273.985 118.914C266.305 118.348 259.107 114.691 251.827 112.106C251.827 112.105 243.273 108.529 243.273 108.529C240.43 107.126 237.266 106.375 235.108 103.66C230.853 97.5538 234.993 87.9524 241.635 87.8945Z" fill="#BC644A"/>
<path d="M236.037 103.795C233.528 104.664 232.097 107.534 232.277 110.326C232.375 113.133 234.556 115.143 236.66 116.517C245.623 121.878 256.106 123.273 265.956 125.787C267.169 126.05 268.453 126.032 269.584 125.532C274.026 123.3 271.183 117.657 267.372 116.803C271.564 117.564 274.505 123.487 269.777 126.028C268.535 126.62 267.147 126.671 265.855 126.433C255.848 124.135 245.378 122.75 236.342 117.085C234.229 115.611 231.923 113.417 231.892 110.33C231.834 107.459 233.438 104.529 236.037 103.795Z" fill="#BC644A"/>
<path d="M283.59 82.059C283.019 81.7703 282.358 81.8521 281.921 82.2621C281.303 82.843 280.283 84.4851 279.43 85.959C278.563 87.4563 279.135 89.1056 280.904 90.3275C283.165 91.8887 286.178 93.1894 287.986 90.7408C290.161 87.7977 288.598 84.5882 283.59 82.059Z" fill="#D17B61"/>
<path d="M289.016 35.9593C288.732 36.2209 288.376 36.3887 287.975 36.465C286.404 36.687 284.625 36.8883 283.801 36.6624C283.233 36.5196 282.732 35.891 282.565 35.0344C281.135 28.666 281.827 24.6788 284.294 23.792C285.524 24.5215 286.473 26.1212 286.762 28.7274C286.954 30.5713 287.778 33.0566 289.016 35.9593Z" fill="#D17B61"/>
<path d="M274.989 93.6433C274.361 93.4037 273.685 93.5462 273.281 93.9995C272.71 94.6418 271.85 96.3916 271.143 97.9566C270.425 99.5463 271.218 101.159 273.203 102.232C275.739 103.603 279.023 104.643 280.604 102.007C282.503 98.8399 280.492 95.7422 274.989 93.6433Z" fill="#D17B61"/>
<path d="M270.307 106.357C269.668 106.156 269 106.339 268.62 106.816C268.082 107.492 267.31 109.291 266.682 110.896C266.044 112.526 266.916 114.089 268.951 115.041C271.552 116.256 274.883 117.097 276.33 114.37C278.069 111.093 275.907 108.121 270.307 106.357Z" fill="#D17B61"/>
<path d="M264.244 117.454C263.75 117.37 263.268 117.575 263.026 117.97C262.682 118.529 262.26 119.948 261.929 121.209C261.592 122.489 262.374 123.564 263.972 124.063C266.012 124.701 268.565 124.984 269.411 122.804C270.429 120.183 268.565 118.192 264.244 117.454Z" fill="#D17B61"/>
<path d="M284.84 142.443C289.94 138.583 294.245 133.762 298.752 129.109C295.059 134.53 290.491 139.585 284.84 142.443Z" fill="#BC644A"/>
<path d="M285.422 105.223C288.444 112.172 295.648 114.206 302.097 113.367L299.649 113.926C293.858 114.933 287.106 111.799 285.422 105.223Z" fill="#BC644A"/>
<path d="M543.425 -22.6865C543.425 -22.6865 484.11 36.1453 449.873 87.8233C440.38 102.152 422.849 127.205 417.193 135.949C416.109 137.626 416.047 140.793 417.88 141.197C434.519 144.865 472.844 146.175 524.143 205.65L704.105 209.58V-10.5033L543.425 -22.6865Z" fill="#6D5FCB"/>
<path d="M514.145 199.393C514.145 199.393 541.282 168.479 549.494 134.221V212.886L514.145 199.393Z" fill="#3C2F9B"/>
</g>
</g>
<defs>
<linearGradient id="paint0_linear_4555_98304" x1="308" y1="173.554" x2="308" y2="0.447586" gradientUnits="userSpaceOnUse">
<stop stop-color="#D6D2FE"/>
<stop offset="1" stop-color="#E6E6FE"/>
</linearGradient>
<clipPath id="clip0_4555_98304">
<rect width="616" height="173.106" fill="white" transform="translate(0 0.447266)"/>
</clipPath>
</defs>
</svg>
